<svg viewBox="0 0 1000 1000" xmlns="http://www.w3.org/2000/svg"><defs><clipPath id="b"><path fill="currentColor" d="M846 600.5q-70 100.5-140 210t-190 59q-120-50.5-219-100T139 610q-59-110-31.5-242.5t152-178q124.5-45.5 229-11t242 44.5Q868 233 892 366.5t-46 234Z"/></clipPath><filter id="a" x="-50vw" y="-50vh" width="100vw" height="100vh"><feFlood flood-color="#fff" result="neutral-gray"/><feTurbulence type="fractalNoise" baseFrequency="2.5" numOctaves="100" stitchTiles="stitch" result="noise"/><feColorMatrix in="noise" type="saturate" values="0" result="destaturatedNoise"/><feComponentTransfer in="desaturatedNoise" result="theNoise"><feFuncA type="table" tableValues="0 0 0.2 0"/></feComponentTransfer><feBlend in="SourceGraphic" in2="theNoise" mode="soft-light" result="noisy-image"/></filter></defs><g filter="url(#a)" clip-path="url(#b)"><path fill="#f43f5e" d="M846 600.5q-70 100.5-140 210t-190 59q-120-50.5-219-100T139 610q-59-110-31.5-242.5t152-178q124.5-45.5 229-11t242 44.5Q868 233 892 366.5t-46 234Z"/></g></svg>